# xmcd
#
# Track frame offsets: 
#        150
#        24367
#        36985
#        53512
#        70939
#        84669
#        97698
#        111408
#        124668
#        140978
#        154110
#        171338
#        186667
#        198683
#        213479
#        231553
#        246884
#        260997
#
# Disc length: 3713 seconds
#
# Revision: 2
# Processed by: cddbd v1.5.2PL0 Copyright (c) Steve Scherf et al.
# Submitted via: ExactAudioCopy v1.0b3
#
DISCID=170e7f12
DTITLE=Lorenzo Santamaria - Todos Sus Singles En EMI 1971 - 1979
DYEAR=1998
DGENRE=Latin Pop
TTITLE0=Canto De Amor
TTITLE1=Extraño Fue
TTITLE2=Rosy
TTITLE3=No Me Siento Satisfecho
TTITLE4=Hello Hello
TTITLE5=Los Dos De La Mano
TTITLE6=Por Ese Amor
TTITLE7=Supermoto
TTITLE8=Cerca De Ti
TTITLE9=En Este Tren
TTITLE10=Blue Jeans
TTITLE11=Solo Puedo Darte Amor
TTITLE12=Te Quiero A Ti
TTITLE13=Adios Amor
TTITLE14=Para Que No Me Olvides
TTITLE15=Tiempo
TTITLE16=Si Tu Fuera Mi Mujer
TTITLE17=Soñador
EXTD=
EXTT0=
EXTT1=
EXTT2=
EXTT3=
EXTT4=
EXTT5=
EXTT6=
EXTT7=
EXTT8=
EXTT9=
EXTT10=
EXTT11=
EXTT12=
EXTT13=
EXTT14=
EXTT15=
EXTT16=
EXTT17=
PLAYORDER=
